<?xml version="1.0" encoding="utf-8"?>
<!-- Generator: Adobe Illustrator 23.0.6, SVG Export Plug-In . SVG Version: 6.00 Build 0)  -->
<svg version="1.1" id="Layer_1" xmlns="http://www.w3.org/2000/svg" xmlns:xlink="http://www.w3.org/1999/xlink" x="0px" y="0px"
	 viewBox="0 0 34.5 55.6" style="enable-background:new 0 0 34.5 55.6;" xml:space="preserve">
<path d="M17.2,0C7.7,0,0,7.7,0,17.2c0,1.8,0.3,3.6,0.8,5.2h0l0,0c0.5,1.7,1.3,3.3,2.3,4.7l14.2,28.4l14-28.4c1-1.4,1.8-3,2.3-4.7
	l0,0c0.5-1.6,0.8-3.4,0.8-5.2C34.5,7.7,26.8,0,17.2,0z M17.2,25.7c-4.8,0-8.7-3.9-8.7-8.7s3.9-8.7,8.7-8.7c4.8,0,8.7,3.9,8.7,8.7
	S22,25.7,17.2,25.7z"/>
</svg>
